G04 #@! TF.GenerationSoftware,KiCad,Pcbnew,9.0.1-9.0.1-0~ubuntu24.04.1*
G04 #@! TF.CreationDate,2025-04-30T17:46:38+09:00*
G04 #@! TF.ProjectId,encoder_disk,656e636f-6465-4725-9f64-69736b2e6b69,rev?*
G04 #@! TF.SameCoordinates,Original*
G04 #@! TF.FileFunction,Soldermask,Top*
G04 #@! TF.FilePolarity,Negative*
%FSLAX46Y46*%
G04 Gerber Fmt 4.6, Leading zero omitted, Abs format (unit mm)*
G04 Created by KiCad (PCBNEW 9.0.1-9.0.1-0~ubuntu24.04.1) date 2025-04-30 17:46:38*
%MOMM*%
%LPD*%
G01*
G04 APERTURE LIST*
G04 Aperture macros list*
%AMOutline4P*
0 Free polygon, 4 corners , with rotation*
0 The origin of the aperture is its center*
0 number of corners: always 4*
0 $1 to $8 corner X, Y*
0 $9 Rotation angle, in degrees counterclockwise*
0 create outline with 4 corners*
4,1,4,$1,$2,$3,$4,$5,$6,$7,$8,$1,$2,$9*%
G04 Aperture macros list end*
%ADD10Outline4P,-0.225000X-2.000000X0.225000X-2.000000X0.125000X2.000000X-0.125000X2.000000X272.400000*%
%ADD11Outline4P,-0.225000X-2.000000X0.225000X-2.000000X0.125000X2.000000X-0.125000X2.000000X282.000000*%
%ADD12Outline4P,-0.225000X-2.000000X0.225000X-2.000000X0.125000X2.000000X-0.125000X2.000000X238.800000*%
%ADD13Outline4P,-0.225000X-2.000000X0.225000X-2.000000X0.125000X2.000000X-0.125000X2.000000X325.200000*%
%ADD14Outline4P,-0.225000X-2.000000X0.225000X-2.000000X0.125000X2.000000X-0.125000X2.000000X195.600000*%
%ADD15Outline4P,-0.225000X-2.000000X0.225000X-2.000000X0.125000X2.000000X-0.125000X2.000000X186.000000*%
%ADD16Outline4P,-0.225000X-2.000000X0.225000X-2.000000X0.125000X2.000000X-0.125000X2.000000X354.000000*%
%ADD17Outline4P,-0.225000X-2.000000X0.225000X-2.000000X0.125000X2.000000X-0.125000X2.000000X3.600000*%
%ADD18Outline4P,-0.225000X-2.000000X0.225000X-2.000000X0.125000X2.000000X-0.125000X2.000000X142.800000*%
%ADD19Outline4P,-0.225000X-2.000000X0.225000X-2.000000X0.125000X2.000000X-0.125000X2.000000X46.800000*%
%ADD20Outline4P,-0.225000X-2.000000X0.225000X-2.000000X0.125000X2.000000X-0.125000X2.000000X99.600000*%
%ADD21Outline4P,-0.225000X-2.000000X0.225000X-2.000000X0.125000X2.000000X-0.125000X2.000000X90.000000*%
%ADD22Outline4P,-0.225000X-2.000000X0.225000X-2.000000X0.125000X2.000000X-0.125000X2.000000X277.200000*%
%ADD23Outline4P,-0.225000X-2.000000X0.225000X-2.000000X0.125000X2.000000X-0.125000X2.000000X190.800000*%
%ADD24Outline4P,-0.225000X-2.000000X0.225000X-2.000000X0.125000X2.000000X-0.125000X2.000000X358.800000*%
%ADD25Outline4P,-0.225000X-2.000000X0.225000X-2.000000X0.125000X2.000000X-0.125000X2.000000X94.800000*%
%ADD26Outline4P,-0.225000X-2.000000X0.225000X-2.000000X0.125000X2.000000X-0.125000X2.000000X234.000000*%
%ADD27Outline4P,-0.225000X-2.000000X0.225000X-2.000000X0.125000X2.000000X-0.125000X2.000000X320.400000*%
%ADD28Outline4P,-0.225000X-2.000000X0.225000X-2.000000X0.125000X2.000000X-0.125000X2.000000X42.000000*%
%ADD29Outline4P,-0.225000X-2.000000X0.225000X-2.000000X0.125000X2.000000X-0.125000X2.000000X138.000000*%
%ADD30Outline4P,-0.225000X-2.000000X0.225000X-2.000000X0.125000X2.000000X-0.125000X2.000000X229.200000*%
%ADD31Outline4P,-0.225000X-2.000000X0.225000X-2.000000X0.125000X2.000000X-0.125000X2.000000X315.600000*%
%ADD32Outline4P,-0.225000X-2.000000X0.225000X-2.000000X0.125000X2.000000X-0.125000X2.000000X37.200000*%
%ADD33Outline4P,-0.225000X-2.000000X0.225000X-2.000000X0.125000X2.000000X-0.125000X2.000000X133.200000*%
%ADD34Outline4P,-0.225000X-2.000000X0.225000X-2.000000X0.125000X2.000000X-0.125000X2.000000X310.800000*%
%ADD35Outline4P,-0.225000X-2.000000X0.225000X-2.000000X0.125000X2.000000X-0.125000X2.000000X224.400000*%
%ADD36Outline4P,-0.225000X-2.000000X0.225000X-2.000000X0.125000X2.000000X-0.125000X2.000000X32.400000*%
%ADD37Outline4P,-0.225000X-2.000000X0.225000X-2.000000X0.125000X2.000000X-0.125000X2.000000X128.400000*%
%ADD38Outline4P,-0.225000X-2.000000X0.225000X-2.000000X0.125000X2.000000X-0.125000X2.000000X306.000000*%
%ADD39Outline4P,-0.225000X-2.000000X0.225000X-2.000000X0.125000X2.000000X-0.125000X2.000000X219.600000*%
%ADD40Outline4P,-0.225000X-2.000000X0.225000X-2.000000X0.125000X2.000000X-0.125000X2.000000X27.600000*%
%ADD41Outline4P,-0.225000X-2.000000X0.225000X-2.000000X0.125000X2.000000X-0.125000X2.000000X123.600000*%
%ADD42Outline4P,-0.225000X-2.000000X0.225000X-2.000000X0.125000X2.000000X-0.125000X2.000000X301.200000*%
%ADD43Outline4P,-0.225000X-2.000000X0.225000X-2.000000X0.125000X2.000000X-0.125000X2.000000X214.800000*%
%ADD44Outline4P,-0.225000X-2.000000X0.225000X-2.000000X0.125000X2.000000X-0.125000X2.000000X22.800000*%
%ADD45Outline4P,-0.225000X-2.000000X0.225000X-2.000000X0.125000X2.000000X-0.125000X2.000000X118.800000*%
%ADD46Outline4P,-0.225000X-2.000000X0.225000X-2.000000X0.125000X2.000000X-0.125000X2.000000X296.400000*%
%ADD47Outline4P,-0.225000X-2.000000X0.225000X-2.000000X0.125000X2.000000X-0.125000X2.000000X210.000000*%
%ADD48Outline4P,-0.225000X-2.000000X0.225000X-2.000000X0.125000X2.000000X-0.125000X2.000000X18.000000*%
%ADD49Outline4P,-0.225000X-2.000000X0.225000X-2.000000X0.125000X2.000000X-0.125000X2.000000X114.000000*%
%ADD50Outline4P,-0.225000X-2.000000X0.225000X-2.000000X0.125000X2.000000X-0.125000X2.000000X291.600000*%
%ADD51Outline4P,-0.225000X-2.000000X0.225000X-2.000000X0.125000X2.000000X-0.125000X2.000000X205.200000*%
%ADD52Outline4P,-0.225000X-2.000000X0.225000X-2.000000X0.125000X2.000000X-0.125000X2.000000X13.200000*%
%ADD53Outline4P,-0.225000X-2.000000X0.225000X-2.000000X0.125000X2.000000X-0.125000X2.000000X109.200000*%
%ADD54Outline4P,-0.225000X-2.000000X0.225000X-2.000000X0.125000X2.000000X-0.125000X2.000000X104.400000*%
%ADD55Outline4P,-0.225000X-2.000000X0.225000X-2.000000X0.125000X2.000000X-0.125000X2.000000X286.800000*%
%ADD56Outline4P,-0.225000X-2.000000X0.225000X-2.000000X0.125000X2.000000X-0.125000X2.000000X200.400000*%
%ADD57Outline4P,-0.225000X-2.000000X0.225000X-2.000000X0.125000X2.000000X-0.125000X2.000000X8.400000*%
%ADD58Outline4P,-0.225000X-2.000000X0.225000X-2.000000X0.125000X2.000000X-0.125000X2.000000X181.200000*%
%ADD59Outline4P,-0.225000X-2.000000X0.225000X-2.000000X0.125000X2.000000X-0.125000X2.000000X85.200000*%
%ADD60Outline4P,-0.225000X-2.000000X0.225000X-2.000000X0.125000X2.000000X-0.125000X2.000000X176.400000*%
%ADD61Outline4P,-0.225000X-2.000000X0.225000X-2.000000X0.125000X2.000000X-0.125000X2.000000X80.400000*%
%ADD62Outline4P,-0.225000X-2.000000X0.225000X-2.000000X0.125000X2.000000X-0.125000X2.000000X267.600000*%
%ADD63Outline4P,-0.225000X-2.000000X0.225000X-2.000000X0.125000X2.000000X-0.125000X2.000000X171.600000*%
%ADD64Outline4P,-0.225000X-2.000000X0.225000X-2.000000X0.125000X2.000000X-0.125000X2.000000X75.600000*%
%ADD65Outline4P,-0.225000X-2.000000X0.225000X-2.000000X0.125000X2.000000X-0.125000X2.000000X262.800000*%
%ADD66Outline4P,-0.225000X-2.000000X0.225000X-2.000000X0.125000X2.000000X-0.125000X2.000000X349.200000*%
%ADD67Outline4P,-0.225000X-2.000000X0.225000X-2.000000X0.125000X2.000000X-0.125000X2.000000X166.800000*%
%ADD68Outline4P,-0.225000X-2.000000X0.225000X-2.000000X0.125000X2.000000X-0.125000X2.000000X70.800000*%
%ADD69Outline4P,-0.225000X-2.000000X0.225000X-2.000000X0.125000X2.000000X-0.125000X2.000000X258.000000*%
%ADD70Outline4P,-0.225000X-2.000000X0.225000X-2.000000X0.125000X2.000000X-0.125000X2.000000X344.400000*%
%ADD71Outline4P,-0.225000X-2.000000X0.225000X-2.000000X0.125000X2.000000X-0.125000X2.000000X162.000000*%
%ADD72Outline4P,-0.225000X-2.000000X0.225000X-2.000000X0.125000X2.000000X-0.125000X2.000000X66.000000*%
%ADD73Outline4P,-0.225000X-2.000000X0.225000X-2.000000X0.125000X2.000000X-0.125000X2.000000X253.200000*%
%ADD74Outline4P,-0.225000X-2.000000X0.225000X-2.000000X0.125000X2.000000X-0.125000X2.000000X339.600000*%
%ADD75Outline4P,-0.225000X-2.000000X0.225000X-2.000000X0.125000X2.000000X-0.125000X2.000000X157.200000*%
%ADD76Outline4P,-0.225000X-2.000000X0.225000X-2.000000X0.125000X2.000000X-0.125000X2.000000X61.200000*%
%ADD77Outline4P,-0.225000X-2.000000X0.225000X-2.000000X0.125000X2.000000X-0.125000X2.000000X248.400000*%
%ADD78Outline4P,-0.225000X-2.000000X0.225000X-2.000000X0.125000X2.000000X-0.125000X2.000000X334.800000*%
%ADD79Outline4P,-0.225000X-2.000000X0.225000X-2.000000X0.125000X2.000000X-0.125000X2.000000X152.400000*%
%ADD80Outline4P,-0.225000X-2.000000X0.225000X-2.000000X0.125000X2.000000X-0.125000X2.000000X56.400000*%
%ADD81Outline4P,-0.225000X-2.000000X0.225000X-2.000000X0.125000X2.000000X-0.125000X2.000000X243.600000*%
%ADD82Outline4P,-0.225000X-2.000000X0.225000X-2.000000X0.125000X2.000000X-0.125000X2.000000X330.000000*%
%ADD83Outline4P,-0.225000X-2.000000X0.225000X-2.000000X0.125000X2.000000X-0.125000X2.000000X147.600000*%
%ADD84Outline4P,-0.225000X-2.000000X0.225000X-2.000000X0.125000X2.000000X-0.125000X2.000000X51.600000*%
G04 APERTURE END LIST*
D10*
G04 #@! TO.C,REF\u002A\u002A*
X142505906Y-100314095D03*
D11*
X142663221Y-101559366D03*
D12*
X143584698Y-96114129D03*
D13*
X145718976Y-106158647D03*
D14*
X147983030Y-92775612D03*
D15*
X149215965Y-92540417D03*
D16*
X149215965Y-107459583D03*
D17*
X150470858Y-107485869D03*
D18*
X154534493Y-94026026D03*
D19*
X155467194Y-105134772D03*
D20*
X157394970Y-98749234D03*
D21*
X157500000Y-100000000D03*
D22*
X142558467Y-100940028D03*
D23*
X148594570Y-92632177D03*
D24*
X149842861Y-107499024D03*
D25*
X157473696Y-99372416D03*
D26*
X143932303Y-95590940D03*
D27*
X145218647Y-105778878D03*
D28*
X155018409Y-105574256D03*
D29*
X155018480Y-94426414D03*
D30*
X144322467Y-95098675D03*
D31*
X144751852Y-105358573D03*
D32*
X154534423Y-105974644D03*
D33*
X155467265Y-94865897D03*
D34*
X144321865Y-104900683D03*
D35*
X144752455Y-94640786D03*
D36*
X154018630Y-106333129D03*
D37*
X155877701Y-95341392D03*
D38*
X143931700Y-104408418D03*
D39*
X145219249Y-94220481D03*
D40*
X153474651Y-106647195D03*
D41*
X156246909Y-95849563D03*
D42*
X143584096Y-103885232D03*
D43*
X145719578Y-93840712D03*
D44*
X152906297Y-106914643D03*
D45*
X156572300Y-96386847D03*
D46*
X143281489Y-103334792D03*
D47*
X146249930Y-93504140D03*
D48*
X152317558Y-107133593D03*
D49*
X156851591Y-96949475D03*
D50*
X143026004Y-102760963D03*
D51*
X146806585Y-93213127D03*
D52*
X151712561Y-107302512D03*
D53*
X157082823Y-97533500D03*
D54*
X157264374Y-98134826D03*
D55*
X142819431Y-102167767D03*
D56*
X147385638Y-92969715D03*
D57*
X151095552Y-107420212D03*
D58*
X149842932Y-92501645D03*
D59*
X157473626Y-100628254D03*
D60*
X150470929Y-92514800D03*
D61*
X157394900Y-101251435D03*
D62*
X142506509Y-99685263D03*
D63*
X151095623Y-92580458D03*
D64*
X157264303Y-101865844D03*
D65*
X142559069Y-99059331D03*
D66*
X148593967Y-107367182D03*
D67*
X151712632Y-92698158D03*
D68*
X157082752Y-102467170D03*
D69*
X142663822Y-98439993D03*
D70*
X147982429Y-107223747D03*
D71*
X152317627Y-92867076D03*
D72*
X156851521Y-103051194D03*
D73*
X142820034Y-97831592D03*
D74*
X147385037Y-107029643D03*
D75*
X152906367Y-93086026D03*
D76*
X156572230Y-103613822D03*
D77*
X143026606Y-97238397D03*
D78*
X146805984Y-106786231D03*
D79*
X153474720Y-93353473D03*
D80*
X156246840Y-104151105D03*
D81*
X143282093Y-96664567D03*
D82*
X146249328Y-106495219D03*
D83*
X154018701Y-93667541D03*
D84*
X155877630Y-104659278D03*
G04 #@! TD*
M02*
